<!DOCTYPE svg PUBLIC "-//W3C//DTD SVG 1.1//EN" "http://www.w3.org/Graphics/SVG/1.1/DTD/svg11.dtd">
<!-- Uploaded to: SVG Repo, www.svgrepo.com, Transformed by: SVG Repo Mixer Tools -->
<svg fill="#5140ce" height="800px" width="800px" version="1.1" id="Layer_1" xmlns="http://www.w3.org/2000/svg" xmlns:xlink="http://www.w3.org/1999/xlink" viewBox="0 0 512 512" xml:space="preserve" stroke="#5140ce">
<g id="SVGRepo_bgCarrier" stroke-width="0"/>
<g id="SVGRepo_tracerCarrier" stroke-linecap="round" stroke-linejoin="round"/>
<g id="SVGRepo_iconCarrier"> <g> <g> <g> <path d="M256,149.333c-82.481,0-149.333,66.853-149.333,149.333S173.519,448,256,448s149.333-66.853,149.333-149.333 S338.481,149.333,256,149.333z M256,405.333c-58.917,0-106.667-47.75-106.667-106.667C149.333,239.75,197.083,192,256,192 s106.667,47.75,106.667,106.667C362.667,357.583,314.917,405.333,256,405.333z"/> <path d="M422.741,42.667h-60.07V32.491C362.671,14.543,348.128,0,330.18,0H181.828c-17.947,0-32.491,14.543-32.491,32.491v10.176 H89.259c-25.734,0-46.592,20.858-46.592,46.592v376.149c0,25.734,20.858,46.592,46.592,46.592h333.483 c25.734,0,46.592-20.858,46.592-46.592V89.259C469.333,63.525,448.475,42.667,422.741,42.667z M192.004,42.667H320v42.667 H192.004V42.667z M426.667,465.408c0,2.17-1.755,3.925-3.925,3.925H89.259c-2.17,0-3.925-1.755-3.925-3.925V89.259 c0-2.17,1.755-3.925,3.925-3.925h60.075v10.176c0,17.947,14.543,32.491,32.491,32.491h0.004h148.348h0.004 c17.947,0,32.491-14.543,32.491-32.491V85.333h60.07c2.17,0,3.925,1.755,3.925,3.925V465.408z"/> <path d="M308.207,236.919c-10.538-5.269-23.353-0.998-28.622,9.541l-29.43,58.86l-21.737-21.737 c-8.331-8.331-21.839-8.331-30.17,0c-8.331,8.331-8.331,21.839,0,30.17l42.667,42.667c0.033,0.033,0.069,0.06,0.102,0.092 c0.342,0.338,0.707,0.655,1.074,0.971c0.187,0.162,0.369,0.333,0.56,0.487c0.284,0.227,0.587,0.436,0.884,0.65 c0.3,0.217,0.597,0.44,0.905,0.639c0.204,0.131,0.421,0.248,0.631,0.373c0.419,0.25,0.838,0.498,1.269,0.717 c0.041,0.021,0.077,0.046,0.118,0.067c0.153,0.076,0.31,0.131,0.464,0.203c0.447,0.21,0.895,0.415,1.353,0.593 c0.26,0.102,0.523,0.184,0.786,0.275c0.386,0.132,0.77,0.265,1.161,0.375c0.34,0.096,0.682,0.172,1.024,0.25 c0.318,0.072,0.634,0.148,0.955,0.206c0.394,0.072,0.788,0.122,1.184,0.171c0.28,0.034,0.558,0.072,0.839,0.095 c0.411,0.034,0.82,0.048,1.229,0.059c0.278,0.007,0.556,0.016,0.834,0.012c0.391-0.006,0.779-0.029,1.168-0.056 c0.307-0.021,0.612-0.042,0.918-0.076c0.348-0.039,0.693-0.093,1.039-0.15c0.346-0.056,0.691-0.114,1.034-0.187 c0.3-0.064,0.596-0.141,0.893-0.218c0.378-0.097,0.755-0.199,1.128-0.317c0.265-0.084,0.524-0.18,0.785-0.275 c0.387-0.14,0.771-0.283,1.151-0.445c0.258-0.11,0.509-0.233,0.762-0.354c0.361-0.172,0.72-0.345,1.072-0.538 c0.285-0.155,0.56-0.326,0.838-0.495c0.301-0.183,0.602-0.364,0.896-0.563c0.335-0.227,0.657-0.474,0.979-0.72 c0.222-0.17,0.446-0.333,0.663-0.512c0.376-0.312,0.735-0.647,1.091-0.986c0.124-0.118,0.258-0.221,0.38-0.343 c0.033-0.033,0.06-0.069,0.092-0.102c0.338-0.342,0.656-0.708,0.972-1.075c0.161-0.187,0.332-0.368,0.486-0.559 c0.228-0.285,0.437-0.588,0.652-0.887c0.216-0.299,0.439-0.595,0.638-0.902c0.132-0.205,0.249-0.423,0.375-0.634 c0.25-0.418,0.496-0.836,0.715-1.266c0.021-0.041,0.047-0.078,0.067-0.119l42.667-85.333 C323.017,255.002,318.745,242.188,308.207,236.919z"/> </g> </g> </g> </g>
</svg>