<?xml version="1.0" encoding="iso-8859-1"?>
<!-- Uploaded to: SVG Repo, www.svgrepo.com, Generator: SVG Repo Mixer Tools -->
<svg height="800px" width="800px" version="1.1" id="Layer_1" xmlns="http://www.w3.org/2000/svg" xmlns:xlink="http://www.w3.org/1999/xlink" 
	 viewBox="0 0 512 512" xml:space="preserve">
<path style="fill:#F7603E;" d="M226.776,10.084c17.163-13.445,41.284-13.445,58.447,0c10.713,8.392,24.778,11.19,37.886,7.536
	c21.002-5.854,43.286,3.377,53.998,22.367c6.685,11.853,18.609,19.82,32.118,21.46c21.643,2.629,38.7,19.686,41.327,41.327
	c1.64,13.508,9.608,25.433,21.46,32.119c18.99,10.71,28.221,32.996,22.367,53.998c-3.653,13.109-0.857,27.173,7.536,37.886
	c13.445,17.163,13.445,41.283,0,58.447c-8.392,10.713-11.19,24.778-7.536,37.886c5.854,21.002-3.377,43.286-22.367,53.998
	c-11.853,6.685-19.82,18.609-21.46,32.118c-2.629,21.643-19.686,38.7-41.327,41.327c-13.508,1.64-25.433,9.608-32.118,21.46
	c-10.71,18.99-32.996,28.221-53.998,22.367c-13.109-3.653-27.173-0.857-37.886,7.536c-17.163,13.445-41.283,13.445-58.447,0
	c-10.713-8.392-24.778-11.19-37.886-7.536c-21.002,5.854-43.286-3.377-53.998-22.367c-6.685-11.853-18.609-19.82-32.119-21.46
	c-21.643-2.629-38.7-19.686-41.327-41.327c-1.64-13.508-9.608-25.433-21.46-32.118c-18.99-10.71-28.221-32.996-22.367-53.998
	c3.653-13.109,0.857-27.173-7.536-37.886c-13.445-17.163-13.445-41.283,0-58.447c8.392-10.713,11.19-24.778,7.536-37.886
	c-5.854-21.002,3.377-43.286,22.367-53.998c11.852-6.685,19.819-18.609,21.46-32.118c2.629-21.643,19.686-38.7,41.327-41.327
	c13.508-1.64,25.433-9.608,32.119-21.46c10.71-18.99,32.996-28.221,53.998-22.367C201.998,21.274,216.064,18.476,226.776,10.084z"/>
<g>
	<path style="fill:#F53000;" d="M501.915,226.777c-8.392-10.713-11.19-24.778-7.536-37.886c5.853-21.002-3.377-43.286-22.367-53.998
		c-11.853-6.685-19.82-18.609-21.46-32.119c-2.629-21.643-19.686-38.7-41.327-41.327c-13.508-1.64-25.433-9.608-32.118-21.46
		c-10.71-18.99-32.996-28.221-53.998-22.367c-13.109,3.653-27.173,0.857-37.886-7.536C276.641,3.362,266.321,0,256,0v512
		c10.321,0,20.642-3.362,29.223-10.084c10.713-8.392,24.777-11.19,37.886-7.536c21.002,5.854,43.286-3.377,53.998-22.367
		c6.685-11.853,18.609-19.82,32.118-21.46c21.643-2.629,38.7-19.686,41.327-41.327c1.64-13.508,9.608-25.432,21.46-32.118
		c18.99-10.712,28.22-32.996,22.367-53.998c-3.653-13.109-0.857-27.173,7.536-37.886
		C515.361,268.061,515.361,243.94,501.915,226.777z"/>
	<path style="fill:#F53000;" d="M257.428,126.345c89.331,0,163.107,66.571,174.442,152.807c0.996-7.577,1.518-15.304,1.518-23.153
		c0-97.18-78.779-175.96-175.96-175.96c-97.18,0-175.96,78.78-175.96,175.96c0,7.849,0.521,15.576,1.518,23.153
		C94.321,192.916,168.097,126.345,257.428,126.345z"/>
</g>
<path style="fill:#FAE246;" d="M256,447.009C150.677,447.009,64.99,361.323,64.99,256S150.677,64.991,256,64.991
	S447.009,150.677,447.009,256S361.322,447.009,256,447.009z M256,99.72c-86.173,0-156.28,70.107-156.28,156.28
	S169.827,412.28,256,412.28S412.28,342.173,412.28,256S342.174,99.72,256,99.72z"/>
<path style="fill:#EAF1C1;" d="M161.827,225.695v-35.179c0-24.526,16.104-33.445,37.161-33.445c20.811,0,37.162,8.92,37.162,33.445
	v35.179c0,24.527-16.352,33.445-37.162,33.445C177.932,259.141,161.827,250.222,161.827,225.695z M211.376,190.517
	c0-8.175-4.707-11.891-12.388-11.891c-7.68,0-12.138,3.716-12.138,11.891v35.179c0,8.176,4.459,11.891,12.138,11.891
	c7.681,0,12.388-3.716,12.388-11.891V190.517z M312.948,160.045c0,1.486-0.248,3.221-0.99,4.707l-87.204,178.619
	c-1.734,3.716-6.441,6.193-11.148,6.193c-8.423,0-13.873-6.937-13.873-13.13c0-1.486,0.495-3.221,1.239-4.707l86.956-178.619
	c1.982-4.211,5.946-6.193,10.405-6.193C305.27,146.915,312.948,152.118,312.948,160.045z M275.54,305.468v-35.179
	c0-24.527,16.103-33.445,37.161-33.445c20.811,0,37.161,8.918,37.161,33.445v35.179c0,24.527-16.35,33.445-37.161,33.445
	C291.643,338.913,275.54,329.995,275.54,305.468z M325.088,270.289c0-8.175-4.707-11.891-12.387-11.891
	c-7.68,0-12.139,3.716-12.139,11.891v35.179c0,8.175,4.46,11.891,12.139,11.891c7.679,0,12.387-3.716,12.387-11.891V270.289z"/>
<path style="fill:#D6B41A;" d="M256,64.991V99.72c86.173,0,156.28,70.107,156.28,156.28S342.173,412.28,256,412.28v34.729
	c105.323,0,191.009-85.687,191.009-191.009S361.322,64.991,256,64.991z"/>
</svg>