<?xml version="1.0" encoding="UTF-8" standalone="no"?> <svg id="flat" xmlns="http://www.w3.org/2000/svg" viewBox="0 0 512 512"><rect x="24" y="72" width="464" height="320" rx="22.947" style="fill:#ffd199"/><path d="M465.053,72H432A598.463,598.463,0,0,1,37.008,294.374L24,296v73.053A22.947,22.947,0,0,0,46.947,392H465.053A22.947,22.947,0,0,0,488,369.053V94.947A22.947,22.947,0,0,0,465.053,72Z" style="fill:#feac4f"/><path d="M471.169,72.831A22.935,22.935,0,0,1,472,78.947V353.053A22.947,22.947,0,0,1,449.053,376H30.947a22.935,22.935,0,0,1-6.116-.831A22.952,22.952,0,0,0,46.947,392H465.053A22.947,22.947,0,0,0,488,369.053V94.947A22.952,22.952,0,0,0,471.169,72.831Z" style="fill:#d68029"/><rect x="56" y="104" width="400" height="256" style="fill:#96d6e4"/><rect x="320" y="104" width="136" height="256" style="fill:#dd1c4b"/><rect x="56" y="104" width="136" height="256" style="fill:#2993ce"/><circle cx="128" cy="224" r="56" style="fill:#f6e597"/><path d="M135.734,168.544A56,56,0,0,1,96,264a56.537,56.537,0,0,1-7.734-.544,56,56,0,1,0,47.468-94.912Z" style="fill:#efd66a"/><circle cx="256" cy="224" r="56" style="fill:#f6e597"/><path d="M263.734,168.544A56,56,0,0,1,224,264a56.537,56.537,0,0,1-7.734-.544,56,56,0,1,0,47.468-94.912Z" style="fill:#efd66a"/><circle cx="384" cy="224" r="56" style="fill:#f6e597"/><path d="M404.221,171.779a56,56,0,0,1-72.442,72.442,56,56,0,1,0,72.442-72.442Z" style="fill:#efd66a"/><path d="M128,253.23a53.09,53.09,0,0,1-37.657-15.573l11.314-11.314a37.254,37.254,0,0,0,52.686,0l11.314,11.314A53.09,53.09,0,0,1,128,253.23Z" style="fill:#0a4566"/><path d="M410.343,258.912a37.254,37.254,0,0,0-52.686,0L346.343,247.6a53.314,53.314,0,0,1,75.314,0Z" style="fill:#0a4566"/><rect x="104" y="200" width="16" height="16" style="fill:#0a4566"/><rect x="136" y="200" width="16" height="16" style="fill:#0a4566"/><rect x="360" y="200" width="16" height="16" style="fill:#0a4566"/><rect x="392" y="200" width="16" height="16" style="fill:#0a4566"/><rect x="232" y="200" width="16" height="16" style="fill:#0a4566"/><rect x="264" y="200" width="16" height="16" style="fill:#0a4566"/><rect x="232" y="232" width="48" height="16" style="fill:#0a4566"/><path d="M240,496V451.314A27.315,27.315,0,0,1,248,432h0a27.315,27.315,0,0,0,8-19.314V328a16,16,0,0,0-16-16h0a16,16,0,0,0-16,16v-8a16,16,0,0,0-16-16h0a16,16,0,0,0-16,16h0a16,16,0,0,0-16-16h0a16,16,0,0,0-16,16V264a16,16,0,0,0-16-16h0a16,16,0,0,0-16,16v94.787A22.787,22.787,0,0,0,105.213,336h0A17.212,17.212,0,0,0,88,353.213v44.774a33.657,33.657,0,0,0,14.988,28l18.024,12.016a33.657,33.657,0,0,1,14.988,28V496Z" style="fill:#eeaaa8"/><path d="M240,312a15.907,15.907,0,0,0-8,2.158A15.98,15.98,0,0,1,240,328v84.686A27.315,27.315,0,0,1,232,432a27.315,27.315,0,0,0-8,19.314V496h16V451.314A27.315,27.315,0,0,1,248,432a27.315,27.315,0,0,0,8-19.314V328A16,16,0,0,0,240,312Z" style="fill:#da8583"/><path d="M105.213,336h0a17.116,17.116,0,0,0-7.394,1.687A22.79,22.79,0,0,1,112,358.787V376a16,16,0,0,0,16,16h0V358.787A22.787,22.787,0,0,0,105.213,336Z" style="fill:#da8583"/></svg>