<svg class="home" width="150px" height="160px" viewBox="0 0 1024 1024" version="1.1"
     xmlns="http://www.w3.org/2000/svg">
    <!--          домик-->
    <rect x="55.955" y="159.998" style="fill:#b85f00;" width="400.087" height="313.306"/>
    <rect x="55.955" y="396.89" style="fill:#834a1b;" width="400.087" height="69.182"/>
    <path style="fill:#936B49;"
          d="M475.222,505.025c0,3.853-3.123,6.975-6.975,6.975H43.754c-3.853,0-6.975-3.123-6.975-6.975v-31.98 c0-3.853,3.123-6.975,6.975-6.975h424.492c3.853,0,6.975,3.123,6.975,6.975V505.025z"/>
    <rect x="295.539" y="222.023" style="fill:#6B4F37;" width="137.204" height="244.056"/>
    <g> <rect x="313.878" y="244.527" style="fill:#826041;" width="100.537" height="91.525"/>
        <rect x="313.878" y="358.362" style="fill:#826041;" width="100.537" height="91.525"/> </g>
    <circle style="fill:#423223;" cx="393.424" cy="318.05" r="9.502"/>
    <rect x="79.24" y="222.023" style="fill:#6B4F37;" width="198.035" height="151.003"/>
    <rect x="88.059" y="228.268" style="fill:#C7D7DC;" width="180.392" height="138.499"/>
    <g style="opacity:0.2;">
        <polygon style="fill:#FFFFFF;" points="157.477,366.781 125.696,366.781 185.615,228.268 217.396,228.268 "/>
        <polygon style="fill:#FFFFFF;" points="199.041,366.781 176.301,366.781 236.216,228.268 258.959,228.268 "/>
        <polygon style="fill:#FFFFFF;" points="108.929,366.781 97.555,366.781 157.474,228.268 168.844,228.268 "/>
    </g>
</svg>