<svg class="home-top absolute" width="150px" height="150px" viewBox="0 0 1024 1024" version="1.1"
     xmlns="http://www.w3.org/2000/svg">
    <rect x="123.647" style="fill:#B92727;" width="264.683" height="23.554"/>
    <g>
        <path style="fill:#CA3F3F;" d="M176.462,18.167h-52.789L38.656,159.998c0,24.772,19.419,44.854,43.374,44.854 s43.374-20.082,43.374-44.854h-0.04L176.462,18.167z"/>
        <path style="fill:#CA3F3F;" d="M388.323,18.167h-52.789l51.103,141.831H386.6c0,24.772,19.419,44.854,43.374,44.854 s43.374-20.082,43.374-44.854L388.323,18.167z"/>
        <path style="fill:#CA3F3F;" d="M282.719,18.167h-26.721h-26.717l-17.168,141.831h0.511c0,24.772,19.419,44.854,43.374,44.854 s43.374-20.082,43.374-44.854h0.511L282.719,18.167z"/>
    </g>
    <g>
        <path style="fill:#EFE9DE;" d="M229.281,18.167h-52.819l-51.103,141.831h0.279c0,24.772,19.419,44.854,43.374,44.854 s43.374-20.082,43.374-44.854h-0.273L229.281,18.167z"/>
        <path style="fill:#EFE9DE;" d="M335.534,18.167h-52.815l17.168,141.831h-0.273c0,24.772,19.419,44.854,43.374,44.854 c23.955,0,43.374-20.082,43.374-44.854h0.279L335.534,18.167z"/>
    </g>
    <path style="fill:#B92727;" d="M82.026,204.852c23.955,0,43.374-20.082,43.374-44.854H38.653 C38.656,184.773,58.075,204.852,82.026,204.852z"/>
    <path style="fill:#DAD5CA;" d="M169.016,204.852c23.955,0,43.374-20.082,43.374-44.854h-86.747 C125.642,184.773,145.061,204.852,169.016,204.852z"/>
    <path style="fill:#B92727;" d="M255.998,204.852c23.955,0,43.374-20.082,43.374-44.854h-86.747 C212.625,184.773,232.044,204.852,255.998,204.852z"/>
    <path style="fill:#DAD5CA;" d="M342.984,204.852c23.955,0,43.374-20.082,43.374-44.854h-86.744 C299.614,184.773,319.033,204.852,342.984,204.852z"/>
    <path style="fill:#B92727;" d="M429.97,204.852c23.955,0,43.374-20.082,43.374-44.854H386.6 C386.6,184.773,406.016,204.852,429.97,204.852z"/>
</svg>