<svg version="1.1" id="_x36_" xmlns="http://www.w3.org/2000/svg" xmlns:xlink="http://www.w3.org/1999/xlink"
	 viewBox="0 0 512 512"  xml:space="preserve"
>
<g>
	<g>
		<g>
			<polygon style="fill:#CEDEF2;" points="416.371,64.581 349.382,77.738 316.33,35.138 383.238,21.982 			"/>
			<polygon style="fill:#3F3F3F;" points="56.96,135.34 9.868,144.646 9.306,144.726 0,97.473 23.827,92.74 27.838,91.938
				34.337,101.645 			"/>
			<polygon style="fill:#6EB9D2;" points="296.514,88.168 256,96.11 229.606,101.324 196.472,58.805 256,47.011 263.461,45.568
				"/>
			<polygon style="fill:#F0E057;" points="176.737,111.754 109.829,124.911 76.696,82.391 143.604,69.154 			"/>
			<polygon style="fill:#3F3F3F;" points="504.138,47.252 469.4,54.152 468.678,53.43 425.998,13.558 436.106,11.552 489.296,1.042
				494.832,0 496.436,8.182 			"/>
			<polygon style="fill:#616C7D;" points="109.829,124.911 94.987,127.879 56.96,135.34 31.77,103.008 23.827,92.74 27.838,91.938
				76.696,82.391 			"/>
			<polygon style="fill:#448538;" points="229.606,101.324 176.737,111.754 143.604,69.154 196.472,58.805 			"/>
			<polygon style="fill:#C03555;" points="349.382,77.738 296.514,88.168 263.461,45.568 316.33,35.138 			"/>
			<polygon style="fill:#616C7D;" points="469.24,54.152 416.371,64.581 383.238,21.982 425.998,13.558 436.106,11.552
				468.678,53.43 468.839,53.59 			"/>
		</g>
	</g>
</g>
</svg>